<?xml version="1.0" standalone="no"?>
<!DOCTYPE svg PUBLIC "-//W3C//DTD SVG 20010904//EN"
 "http://www.w3.org/TR/2001/REC-SVG-20010904/DTD/svg10.dtd">
<svg version="1.0" xmlns="http://www.w3.org/2000/svg"
 width="200.000000pt" height="200.000000pt" viewBox="0 0 200.000000 200.000000"
 preserveAspectRatio="xMidYMid meet">
<metadata>
Created by potrace 1.11, written by Peter Selinger 2001-2013
</metadata>
<g transform="translate(0.000000,200.000000) scale(0.100000,-0.100000)"
fill="#000000" stroke="none">
<path d="M570 1697 c-368 -212 -426 -256 -448 -337 -10 -33 -12 -149 -10 -446
3 -380 4 -403 22 -423 11 -12 85 -59 165 -105 80 -46 229 -132 330 -190 101
-58 190 -106 197 -106 7 0 20 7 28 16 14 13 16 64 16 404 0 255 -4 397 -11
413 -13 28 1 20 -309 194 -140 79 -263 153 -272 164 -38 45 -7 109 51 109 16
0 151 -31 300 -70 149 -38 286 -70 305 -70 26 0 118 47 378 194 295 166 343
197 346 218 2 14 -3 29 -10 35 -12 10 -633 175 -708 188 -32 6 -64 -11 -370
-188z"/>
<path d="M1470 1456 c-30 -18 -53 -37 -51 -42 2 -5 41 -30 85 -55 125 -72 131
-64 -186 -243 -148 -84 -278 -162 -290 -174 -23 -23 -23 -23 -26 -419 -2 -360
-1 -397 14 -414 10 -11 23 -19 31 -19 12 0 578 321 660 374 18 12 37 31 43 44
6 15 10 165 10 423 0 324 -3 405 -14 427 -14 26 -182 132 -209 132 -7 -1 -37
-16 -67 -34z"/>
</g>
</svg>
